<?xml version="1.0" encoding="UTF-8"?>
<svg id="Layer_1" xmlns="http://www.w3.org/2000/svg" version="1.1" viewBox="0 0 704.64 652.55">
  <!-- Generator: Adobe Illustrator 29.6.1, SVG Export Plug-In . SVG Version: 2.1.1 Build 9)  -->
  <defs>
    <style>
      .st0 {
        stroke: #d60d89;
        stroke-miterlimit: 10;
        stroke-width: 20px;
      }

      .st0, .st1 {
        fill: none;
      }
    </style>
  </defs>
  <path class="st0" d="M457.99,53.96c-69.33-45.56-182.03-36.6-238.15,26.6-47.29,53.26-43.59,109.29-38.47,176.5.8,10.49,7.03,17.42-7.83,19.18-12.57,1.49-24.6-6.4-35.97-9.39-21.87-5.75-50.22,14.81-32.65,37.66,16.05,20.88,61.25,19.65,71.65,41.35,4.49,9.38-3.33,25.07-7.69,33.74-20.33,40.37-62.04,82.14-106.34,94.72-9.35,2.65-25.91,1.6-27.93,14-.86,5.27.67,9.6,3.56,13.96,11.4,17.14,54.93,24.07,74.21,27.82,7.23,1.41,7.85,1.78,10.27,8.71,4.56,13.08,1.9,36.11,23.18,34.8,10.84-.67,24.06-5.37,35.99-6.06,55.12-3.16,65.91,19.95,107.87,43.21,36.84,20.43,81.52,23.03,120.03,4.69,34.87-16.6,55.84-45.35,97.15-47.85,12.98-.78,26.02.56,38.87,2.11,9.79,1.18,21.25,6.92,30.11-1.13,10.09-9.17,6.56-32.66,13.93-37.06,2.83-1.69,10.8-1.42,14.75-2.23,18.62-3.81,61.03-13.02,68.55-32.47s-15.24-19.06-26.18-22.29c-48.3-14.29-93.82-59.95-112.74-106.26-3.67-8.99-5.92-18.71.68-26.69,15.27-18.49,51.38-16.57,68.48-36.52s-3.97-37.94-24.6-39.34c-17.8-1.21-34.58,17.15-52.45,7.21-.63-1.17-.86-2.38-.83-3.71.73-34.6,7.56-70.28,2.81-105.03-5.95-43.54-33.6-86.12-70.27-110.22Z"/>
  <path class="st1" d="M455.96,330.49c0,6-1.91,11.93-5.44,16.79s-8.11,10.22-13.12,13.63c-4.06,2.77-9.22,4.34-13.96,3.04-.53-.2-1.38-.54-.91-1.2.33-.46,1.41-.92,1.88-1.27.26-.2.53-.4.66-.7.23-.51-.04-1.14-.48-1.49-1.38-1.11-3.4-.85-5.04-1.2-1.84-.4-3.6-1.11-5.26-1.99-3.3-1.75-6.27-4.21-8.7-7.05-4.39-5.15-6.83-11.78-6.83-18.54,0-15.79,12.8-28.59,28.59-28.59s28.59,12.8,28.59,28.59Z"/>
</svg>