<?xml version="1.0" encoding="UTF-8"?>
<svg id="Layer_1" xmlns="http://www.w3.org/2000/svg" version="1.1" viewBox="0 0 704.64 652.55">
  <!-- Generator: Adobe Illustrator 29.6.1, SVG Export Plug-In . SVG Version: 2.1.1 Build 9)  -->
  <defs>
    <style>
      .st0 {
        fill: #d60d89;
      }

      .st1 {
        fill: none;
      }
    </style>
  </defs>
  <path class="st1" d="M455.96,330.49c0,6-1.91,11.93-5.44,16.79s-8.11,10.22-13.12,13.63c-4.06,2.77-9.22,4.34-13.96,3.04-.53-.2-1.38-.54-.91-1.2.33-.46,1.41-.92,1.88-1.27.26-.2.53-.4.66-.7.23-.51-.04-1.14-.48-1.49-1.38-1.11-3.4-.85-5.04-1.2-1.84-.4-3.6-1.11-5.26-1.99-3.3-1.75-6.27-4.21-8.7-7.05-4.39-5.15-6.83-11.78-6.83-18.54,0-15.79,12.8-28.59,28.59-28.59s28.59,12.8,28.59,28.59Z"/>
  <path class="st0" d="M288.89,635.77c-26.54,0-53-5.25-77.26-15.4-30.12-12.6-56.01-32.01-76.95-57.67-27.67-33.91-43.59-74.03-46.03-116.03-2.27-39.02,6.93-78.02,26.61-112.8,19.43-34.35,47.62-61.97,81.53-79.87,36.45-19.24,78.08-26.19,120.39-20.08l9.86,1.42v130.92l-14.68-4.22c-28.99-8.33-58.17-1.39-78.06,18.58-19.61,19.69-26.05,47.44-17.67,76.14,8.05,27.56,29.67,46.92,57.84,51.79,28.67,4.95,57.17-6.75,74.39-30.56,3.93-5.43,13.53-27.81,14.24-33.13V9.2h124.77l-.04,11.54c-.12,35.99,14.71,71.25,40.69,96.74,25.15,24.67,57.78,37.83,91.94,37.05l11.76-.27v125.38l-11.22.27c-37.53.9-79.36-8.06-114.69-24.6-5.53-2.59-10.52-5.96-15.36-9.22-1.05-.71-2.09-1.41-3.12-2.1v217.64c0,20.9-20.94,65.61-29.88,80.08-17.35,28.11-40.41,50.67-68.54,67.05-26.38,15.36-56.6,24.56-87.4,26.58-4.37.29-8.75.43-13.13.43ZM287.55,254.77c-63.06,0-119.86,33.13-152.26,90.42-37.48,66.25-30.88,144.02,17.22,202.97,36.41,44.62,90.35,68.03,148.02,64.24,57.49-3.78,107.74-33.95,137.88-82.76,9.95-16.12,26.45-55.03,26.45-68v-251.01l14.39,3.73c9.46,2.45,17.51,7.89,24.61,12.68,4.29,2.89,8.34,5.63,12.24,7.45,28.72,13.45,62.08,21.4,93.16,22.39v-79.54c-36.07-2.04-70.08-17.21-96.81-43.43-27.6-27.08-44.44-63.62-47.19-101.69h-79.13v412.91c0,10.6-13.54,39.35-18.6,46.36-22.41,30.97-59.55,46.21-96.94,39.74-17.33-2.99-33.4-10.5-46.48-21.71-13.97-11.98-24.18-27.99-29.53-46.3-10.64-36.45-1.88-73.39,23.45-98.82,22.48-22.57,53.83-32.44,86.03-27.65v-81.22c-5.53-.5-11.05-.75-16.5-.75ZM363.11,445.09v.03-.03Z"/>
</svg>