<?xml version="1.0" encoding="UTF-8"?>
<svg id="Layer_1" data-name="Layer 1" xmlns="http://www.w3.org/2000/svg" viewBox="0 0 1031 962">
  <defs>
    <style>
      .cls-1 {
        stroke: #d60d89;
        stroke-miterlimit: 10;
        stroke-width: 20px;
      }

      .cls-1, .cls-2 {
        fill: none;
      }
    </style>
  </defs>
  <path class="cls-2" d="M543.59,487.92c0,6-1.91,11.93-5.44,16.79s-8.11,10.22-13.12,13.63c-4.06,2.77-9.22,4.34-13.96,3.04-.53-.2-1.38-.54-.91-1.2.33-.46,1.41-.92,1.88-1.27.26-.2.53-.4.66-.7.23-.51-.04-1.14-.48-1.49-1.38-1.11-3.4-.85-5.04-1.2-1.84-.4-3.6-1.11-5.26-1.99-3.3-1.75-6.27-4.21-8.7-7.05-4.39-5.15-6.83-11.78-6.83-18.54,0-15.79,12.8-28.59,28.59-28.59s28.59,12.8,28.59,28.59Z"/>
  <path class="cls-1" d="M563.98,178.13c-.27,79.42,64.85,147.12,144.39,145.32v102.39c-36.74.88-76.26-7.95-109.53-23.52-11.67-5.46-22.2-16.13-34.86-19.42v236.15c0,16.84-18.7,58.7-28.16,74.04-67.49,109.33-223.34,119.32-304.59,19.75-110.03-134.84,2.24-334.61,171.95-310.13v105.69c-68.89-19.81-130.5,38.56-109.94,109,20.15,69.02,110.47,82.97,152.59,24.75,4.81-6.65,16.42-33,16.42-39.62V178.13h101.73Z"/>
</svg>