<?xml version="1.0" encoding="UTF-8"?>
<svg id="objects" xmlns="http://www.w3.org/2000/svg" version="1.1" viewBox="0 0 397.35 397.35">
  <!-- Generator: Adobe Illustrator 29.6.1, SVG Export Plug-In . SVG Version: 2.1.1 Build 9)  -->
  <defs>
    <style>
      .st0 {
        fill: #eaeaea;
      }
    </style>
  </defs>
  <path class="st0" d="M201.93,95.99c-52.17,0-94.63,42.46-94.63,94.63,0,18.97,5.6,36.62,15.22,51.43l-10.16,38.14,38.14-10.16c1.23.82,2.51,1.6,3.83,2.35,13.99,8.19,30.24,12.88,47.6,12.88,52.17,0,94.63-42.46,94.63-94.63s-42.46-94.63-94.63-94.63ZM258.05,232.28c-1.65,2.48-3.38,4.79-6.15,7.55-6.06,6.06-14.48,9.12-23.02,8.25-15.3-1.57-37.04-10.02-55.73-28.67-18.69-18.69-27.14-40.43-28.67-55.73-.87-8.54,2.19-16.95,8.25-23.02,2.76-2.76,5.07-4.5,7.55-6.19,4.58-3.09,10.81-1.03,12.54,4.17l6.27,18.81c1.73,5.16.95,8.42-1.28,10.6l-4.99,5.04c-2.48,2.48-2.89,6.31-.99,9.28,2.76,4.33,7.96,11.26,17.53,20.83,9.57,9.57,16.5,14.77,20.83,17.53,2.97,1.9,6.81,1.49,9.28-.99l5.04-4.99c2.19-2.23,5.45-3.01,10.6-1.28l18.81,6.27c5.2,1.73,7.26,7.96,4.13,12.54Z"/>
  <path class="st0" d="M198.68,0h0C88.95,0,0,88.95,0,198.68h0c0,109.73,88.95,198.68,198.68,198.68h0c109.73,0,198.68-88.95,198.68-198.68h0C397.35,88.95,308.4,0,198.68,0ZM321.16,195.36c-2.37,61.28-52.26,111.61-113.52,114.45-21.95,1.02-42.65-3.86-60.68-13.28h-.04l-59.7,13.33c-2.7.56-5.09-1.83-4.53-4.53l13.33-59.7c-9.49-18.16-14.37-39.07-13.26-61.18,3.07-61.36,53.79-111.09,115.19-113.08,69.31-2.25,125.89,54.59,123.2,123.99Z"/>
</svg>