<?xml version="1.0" encoding="UTF-8"?>
<svg id="objects" xmlns="http://www.w3.org/2000/svg" viewBox="0 0 397.35 397.35">
  <defs>
    <style>
      .cls-1 {
        fill: #eaeaea;
      }
    </style>
  </defs>
  <polygon class="cls-1" points="125.34 116.57 242.91 280.78 272.01 280.78 154.45 116.57 125.34 116.57"/>
  <path class="cls-1" d="M198.68,0h0C88.95,0,0,88.95,0,198.68h0c0,109.73,88.95,198.68,198.68,198.68h0c109.73,0,198.68-88.95,198.68-198.68h0C397.35,88.95,308.4,0,198.68,0ZM231.55,302.89l-51.47-71.9-67.22,71.9h-30.52l84.5-90.39-84.5-118.04h83.48l48.31,67.48,63.08-67.48h30.52l-80.37,85.96,87.67,122.46h-83.48Z"/>
</svg>